<?xml version="1.0" encoding="UTF-8"?>
<svg id="Layer_1" xmlns="http://www.w3.org/2000/svg" version="1.1" viewBox="0 0 296.9 296.9">
  <!-- Generator: Adobe Illustrator 29.5.0, SVG Export Plug-In . SVG Version: 2.1.0 Build 137)  -->
  <defs>
    <style>
      .st0 {
        fill: #fff;
      }
    </style>
  </defs>
  <rect class="st0" x="0" width="296.9" height="296.9"/>
  <path d="M181,86.3v29.6h-42.7c-12.4,0-22.5,10-22.5,22.5v42.7h-29.6c-12.4,0-22.5-10-22.5-22.5v-72.3c0-12.4,10.1-22.5,22.5-22.5h72.3c12.4,0,22.5,10,22.5,22.5Z"/>
  <path d="M233.1,138.3v72.3c0,12.4-10.1,22.5-22.5,22.5h-72.3c-12.4,0-22.5-10-22.5-22.5v-29.6h42.7c12.4,0,22.5-10,22.5-22.5v-42.7h29.6c12.4,0,22.5,10,22.5,22.5h0Z"/>
</svg>